<?xml version="1.0" encoding="iso-8859-1"?>
<!-- Generator: Adobe Illustrator 19.0.0, SVG Export Plug-In . SVG Version: 6.00 Build 0)  -->
<svg xmlns="http://www.w3.org/2000/svg" xmlns:xlink="http://www.w3.org/1999/xlink" version="1.1" id="Capa_1" x="0px" y="0px" viewBox="0 0 480 480" style="enable-background:new 0 0 480 480;" xml:space="preserve" width="512px" height="512px">
<path d="M476.04,125.215C457.399,71.991,374.159,32.057,271.99,25.085V24c0-13.233-10.766-24-24-24h-16c-13.234,0-24,10.767-24,24  v1.085C105.456,32.083,21.985,72.28,3.742,125.789c-1.028,3.017-0.167,6.358,2.191,8.502c2.36,2.145,5.767,2.682,8.672,1.372  C63.575,113.56,132.771,99.725,207.99,96.653V136c0,4.418,3.582,8,8,8v140.305c-9.555,5.542-16,15.876-16,27.695v136  c0,17.645,14.355,32,32,32h16c17.645,0,32-14.355,32-32V312c0-11.818-6.445-22.153-16-27.695V144c4.418,0,8-3.582,8-8V96.653  c75.219,3.072,144.416,16.907,193.385,39.009c1.055,0.476,2.176,0.708,3.29,0.708c0.022,0,0.043,0,0.066,0  c4.397-0.024,7.956-3.596,7.956-8C476.686,127.25,476.456,126.183,476.04,125.215z M223.99,24c0-4.411,3.589-8,8-8h16  c4.411,0,8,3.589,8,8v0.271c-5.293-0.179-10.628-0.271-16-0.271c-5.372,0-10.707,0.092-16,0.271V24z M263.99,448  c0,8.823-7.178,16-16,16h-16c-8.822,0-16-7.177-16-16V312c0-8.823,7.178-16,16-16h16c8.822,0,16,7.177,16,16V448z M247.99,280h-16  V144h16V280z M255.99,128h-32V96.164c5.311-0.108,10.645-0.164,16-0.164s10.689,0.056,16,0.164V128z M239.99,80  c-79.431,0-154.904,11.771-211.31,32.639c12.78-17.361,34.805-33.142,64.073-45.613C133.658,49.598,185.948,40,239.99,40  s106.332,9.598,147.237,27.026c29.268,12.471,51.292,28.252,64.073,45.613C394.894,91.771,319.422,80,239.99,80z" fill="#ffd700"/>
<g>
</g>
<g>
</g>
<g>
</g>
<g>
</g>
<g>
</g>
<g>
</g>
<g>
</g>
<g>
</g>
<g>
</g>
<g>
</g>
<g>
</g>
<g>
</g>
<g>
</g>
<g>
</g>
<g>
</g>
</svg>
