<?xml version="1.0" encoding="iso-8859-1"?>
<!-- Generator: Adobe Illustrator 19.0.0, SVG Export Plug-In . SVG Version: 6.00 Build 0)  -->
<svg version="1.1" id="Capa_1" xmlns="http://www.w3.org/2000/svg" xmlns:xlink="http://www.w3.org/1999/xlink" x="0px" y="0px"
	 viewBox="0 0 511.999 511.999" style="enable-background:new 0 0 511.999 511.999;" xml:space="preserve">
<path style="fill:#EDEBED;" d="M405.854,44.45L59.963,115.005h368.99L415.297,50.64C414.384,46.334,410.168,43.57,405.854,44.45z"/>
<path style="fill:#DBD9DC;" d="M444.589,82.895c-0.472-4.402-4.422-7.589-8.824-7.117L69.581,115.005h378.448L444.589,82.895z"/>
<path style="fill:#FFE17D;" d="M456.403,467.715H39.565c-17.709,0-32.065-14.356-32.065-32.065V147.07
	c0-17.709,14.356-32.065,32.065-32.065h416.839c17.709,0,32.065,14.356,32.065,32.065v288.58
	C488.468,453.359,474.112,467.715,456.403,467.715z"/>
<path style="fill:#FFD164;" d="M488.468,339.457H376.242c-8.854,0-16.032-7.178-16.032-16.032v-64.129
	c0-8.854,7.178-16.032,16.032-16.032h112.226c8.854,0,16.032,7.178,16.032,16.032v64.129
	C504.5,332.279,497.322,339.457,488.468,339.457z"/>
<circle style="fill:#9C969E;" cx="408.31" cy="291.36" r="16.03"/>
<path style="fill:#FFD164;" d="M272.032,443.667c-123.961,0-224.452-100.491-224.452-224.452v-104.21h-8.016
	C21.855,115.005,7.5,129.36,7.5,147.07v288.58c0,17.708,14.355,32.065,32.065,32.065h416.839c14.924,0,27.355-10.243,30.931-24.048
	H272.032z"/>
<path d="M495.968,236.99v-89.927c0-21.815-17.749-39.564-39.564-39.564h-1.635l-2.722-25.409c-0.441-4.121-2.461-7.823-5.688-10.425
	c-3.226-2.602-7.275-3.792-11.393-3.35l-8.29,0.888l-4.079-19.995c-1.711-8.383-9.921-13.815-18.305-12.102L59.206,107.499H39.564
	C17.748,107.499,0,125.248,0,147.063v288.581c0,21.815,17.748,39.564,39.564,39.564h416.839c21.815,0,39.564-17.749,39.564-39.564
	v-89.926c9.308-3.139,16.032-11.946,16.032-22.3V259.29C512,248.936,505.276,240.13,495.968,236.99z M436.564,83.229
	c0.053-0.003,0.211-0.022,0.379,0.111c0.166,0.135,0.184,0.295,0.189,0.347l2.551,23.812H210.006L436.564,83.229z M407.291,51.804
	c0.276-0.052,0.553,0.124,0.609,0.402l3.795,18.601L206.223,92.819L407.291,51.804z M456.403,460.209H39.564
	C26.02,460.209,15,449.189,15,435.644v-0.517h385.29c4.143,0,7.5-3.357,7.5-7.5s-3.357-7.5-7.5-7.5H15V162.58h385.29
	c4.143,0,7.5-3.357,7.5-7.5s-3.357-7.5-7.5-7.5H15v-0.517c0-13.545,11.02-24.564,24.564-24.564H448c0.007,0,0.014,0.001,0.021,0.001
	c0.006,0,0.012-0.001,0.018-0.001h8.365c13.545,0,24.564,11.02,24.564,24.564v88.694h-25.081V155.08c0-4.143-3.357-7.5-7.5-7.5
	h-16.034c-4.143,0-7.5,3.357-7.5,7.5s3.357,7.5,7.5,7.5h8.534v73.178h-64.645c-12.976,0-23.532,10.557-23.532,23.532v64.129
	c0,12.976,10.557,23.532,23.532,23.532h64.645v73.177h-8.534c-4.143,0-7.5,3.357-7.5,7.5s3.357,7.5,7.5,7.5h16.034
	c4.143,0,7.5-3.357,7.5-7.5v-80.677h25.081v88.693C480.968,449.189,469.948,460.209,456.403,460.209z M497,323.419
	c0,4.702-3.822,8.526-8.523,8.532c-0.003,0-0.006,0-0.01,0c-0.007,0-0.013,0.001-0.019,0.001H376.242
	c-4.705,0-8.532-3.827-8.532-8.532v-64.13c0-4.705,3.827-8.532,8.532-8.532h112.187c0.013,0,0.026,0.002,0.039,0.002
	c0.007,0,0.013-0.001,0.019-0.001c4.696,0.011,8.513,3.833,8.513,8.531L497,323.419L497,323.419z"/>
<path d="M408.307,267.822c-12.976,0-23.532,10.557-23.532,23.532s10.557,23.532,23.532,23.532s23.532-10.557,23.532-23.532
	S421.282,267.822,408.307,267.822z M408.307,299.886c-4.705,0-8.532-3.827-8.532-8.532s3.827-8.532,8.532-8.532
	s8.532,3.827,8.532,8.532S413.012,299.886,408.307,299.886z"/>
<g>
</g>
<g>
</g>
<g>
</g>
<g>
</g>
<g>
</g>
<g>
</g>
<g>
</g>
<g>
</g>
<g>
</g>
<g>
</g>
<g>
</g>
<g>
</g>
<g>
</g>
<g>
</g>
<g>
</g>
</svg>
